<svg xmlns="http://www.w3.org/2000/svg" viewBox="0 0 64 64" id="motorcycle"><g><circle cx="32" cy="32" r="29" fill="#63cdf7"></circle><circle cx="24.525" cy="39.102" r="9.096" fill="#fff"></circle><circle cx="24.525" cy="39.102" r="5.839" fill="#f9b233"></circle><path fill="#fff" style="mix-blend-mode:overlay" d="M20.525 39.1c0-2.649 1.141-4.894 2.724-5.695a5.836 5.836 0 0 0 0 11.391c-1.583-.796-2.724-3.044-2.724-5.696Z" opacity=".2"></path><path style="mix-blend-mode:multiply" d="M30.364 39.1a5.839 5.839 0 0 0-4.564-5.693c1.583.8 2.724 3.046 2.724 5.7S27.384 44 25.8 44.8a5.839 5.839 0 0 0 4.564-5.7Z" opacity=".1"></path><path fill="#f9b233" d="m43.822 33.739-3.83-1.286 3.5 1.76a1.848 1.848 0 0 0 1.634.037l1.213-.551-.243.074a3.74 3.74 0 0 1-2.274-.034zm-2.516-11.88 3.7 1.349-3.329-1.821a1.859 1.859 0 0 0-1.839 0l-.653.357a3.711 3.711 0 0 1 2.121.115zM61 34.69H47.31l4.321 6.391H61V34.69z"></path><path fill="#3c3c3b" d="M61 41.082H44.932l-.512-1-1.52-2.95 1.355-.695-1.42-2.765-6.33 3.251 1.421 2.765 1.485-.764.599 1.158 1.98 3.86.527 1H61v-3.86zM55.114 29.227a2.994 2.994 0 0 0-3.2 2.732 2.994 2.994 0 0 0 3.2 2.731H61v-5.463zM43.459 16.7 37 14.669l-4.206 4.1-1.653 3.588c-.853-1.777-4.569-2.34-4.569-2.34l-.116 6.067A10.722 10.722 0 0 0 29.9 25.04l-2.086 4.528a10.13 10.13 0 1 0 1.816.84l4.821-10.469 2.65-2.58.377 1.692 3.366 1.468.4-.917-2.9-1.265-.275-1.237 4.792 1.5zM32.621 39.1a8.1 8.1 0 1 1-5.644-7.715l-2.655 5.764a1.962 1.962 0 1 0 1.821.828l2.647-5.747a8.093 8.093 0 0 1 3.831 6.87z"></path><path style="mix-blend-mode:multiply" d="M57.624 29.227H61v15.714h-3.376z" opacity=".1"></path><path fill="#f9b233" d="m34.448 23.422 4.3-1.565a3.731 3.731 0 0 1 2.554 0l9.506 3.468a3.733 3.733 0 0 1 2.325 2.538 3.732 3.732 0 0 1-2.519 4.537l-4.523 1.369a3.74 3.74 0 0 1-2.269-.034l-9.239-3.1a3.729 3.729 0 0 1-2.407-2.535l-.048-.171a3.732 3.732 0 0 1 2.32-4.507Z"></path><path fill="#fff" style="mix-blend-mode:overlay" d="m35.1 28.124-.034-.184c-.375-2.027.352-4.147 1.671-4.866l2.444-1.332a3.619 3.619 0 0 0-.432.115l-4.3 1.565a3.732 3.732 0 0 0-2.32 4.506l.048.171a3.729 3.729 0 0 0 2.407 2.538l5.409 1.816-3.155-1.589a3.754 3.754 0 0 1-1.738-2.74Z" opacity=".2"></path><path style="mix-blend-mode:multiply" d="M53.137 27.865a3.731 3.731 0 0 0-2.325-2.538l-5.807-2.119 3.514 1.923a3.825 3.825 0 0 1 1.674 2.74c.376 2.1-.428 4.271-1.816 4.9l-2.043.927 4.28-1.295a3.732 3.732 0 0 0 2.523-4.538Z" opacity=".1"></path></g></svg>